<svg xmlns="http://www.w3.org/2000/svg" width="29" height="20" viewBox="0 0 29 20">
  <path id="Icon_zocial-email" data-name="Icon zocial-email" d="M.072,22.3V5.839q0-.029.084-.543l9.48,8.286L.184,22.868A2.468,2.468,0,0,1,.072,22.3ZM1.33,4.154a1.183,1.183,0,0,1,.475-.086H27.338a1.553,1.553,0,0,1,.5.086l-9.508,8.314L17.075,13.5l-2.489,2.086L12.1,13.5l-1.258-1.029Zm.028,19.829,9.536-9.343L14.586,17.7l3.691-3.057,9.536,9.343a1.317,1.317,0,0,1-.475.086H1.806a1.243,1.243,0,0,1-.447-.086Zm18.177-10.4L28.988,5.3a1.739,1.739,0,0,1,.084.543V22.3a2.234,2.234,0,0,1-.084.571Z" transform="translate(-0.072 -4.068)" fill="#496ccf"/>
</svg>
