<svg id="Group_303" data-name="Group 303" xmlns="http://www.w3.org/2000/svg" xmlns:xlink="http://www.w3.org/1999/xlink" width="92" height="91" viewBox="0 0 92 91">
  <defs>
    <clipPath id="clip-path">
      <rect id="Rectangle_1257" data-name="Rectangle 1257" width="92" height="91" fill="none"/>
    </clipPath>
  </defs>
  <g id="Group_303-2" data-name="Group 303" clip-path="url(#clip-path)">
    <path id="Path_402" data-name="Path 402" d="M141.812,134.135V106.948a5.471,5.471,0,0,0-5.481-5.448h-15.76a1.814,1.814,0,1,0,0,3.627h15.76a1.829,1.829,0,0,1,1.832,1.821v27.187a1.829,1.829,0,0,1-1.832,1.821h-27.35a1.829,1.829,0,0,1-1.832-1.821V106.948a1.829,1.829,0,0,1,1.832-1.821h.644a1.814,1.814,0,1,0,0-3.627h-.644a5.471,5.471,0,0,0-5.481,5.448v27.187a5.471,5.471,0,0,0,5.481,5.448h27.35a5.471,5.471,0,0,0,5.481-5.448" transform="translate(-76.526 -74.821)" fill="#fff"/>
    <path id="Path_403" data-name="Path 403" d="M56.555,168.49H24a6.522,6.522,0,0,1-6.534-6.495V131.313a1.824,1.824,0,0,0-3.649,0v2.461H1.824a1.814,1.814,0,1,0,0,3.627H13.813v9.067H1.824a1.814,1.814,0,1,0,0,3.627H13.813v9.067H1.824a1.814,1.814,0,1,0,0,3.627H13.847A10.169,10.169,0,0,0,24,172.117h1.545v13.212a1.824,1.824,0,0,0,3.649,0V172.117h8.861v13.212a1.824,1.824,0,0,0,3.649,0V172.117h8.6v13.212a1.824,1.824,0,0,0,3.649,0V172.117h2.606a1.814,1.814,0,1,0,0-3.627" transform="translate(0 -95.567)" fill="#fff"/>
    <path id="Path_404" data-name="Path 404" d="M90.176,41.451a1.814,1.814,0,1,0,0-3.627H78.187V28.757H90.176a1.814,1.814,0,1,0,0-3.627H78.186A10.164,10.164,0,0,0,68,15.026H66.72V1.813a1.824,1.824,0,0,0-3.649,0V15.026H53.949V1.813a1.824,1.824,0,0,0-3.649,0V15.026H41.7V1.813a1.824,1.824,0,0,0-3.649,0V15.026H29.19V1.813a1.824,1.824,0,0,0-3.649,0V15.026H24a10.164,10.164,0,0,0-10.182,10.1H1.824a1.814,1.814,0,1,0,0,3.627H15.637a1.819,1.819,0,0,0,1.824-1.813v-1.8A6.522,6.522,0,0,1,24,18.653H68a6.522,6.522,0,0,1,6.534,6.495v40.9A6.522,6.522,0,0,1,68,72.539H64.6c-.026,0-.051,0-.077.005s-.063,0-.094.006-.059.009-.088.013-.063.009-.093.016-.057.014-.085.022-.06.015-.089.024-.055.02-.082.03-.057.02-.084.032-.053.025-.079.038-.054.025-.08.04-.05.03-.075.045-.051.031-.075.047-.046.034-.069.051-.048.035-.071.054-.042.038-.063.057-.045.04-.066.061-.038.041-.056.062-.041.045-.06.068-.033.044-.05.066-.037.049-.054.075-.029.047-.043.071-.032.052-.047.079-.025.051-.037.076-.027.054-.038.083-.02.054-.03.082-.021.056-.029.085-.015.058-.023.088-.015.057-.021.086-.01.062-.014.092-.009.058-.012.088,0,.063,0,.095,0,.05,0,.075c0,.005,0,.01,0,.016s0,.01,0,.016l.261,15.026a1.819,1.819,0,0,0,1.824,1.782h.032a1.818,1.818,0,0,0,1.793-1.845l-.229-13.181H68a10.164,10.164,0,0,0,10.182-10.1H90.176a1.814,1.814,0,1,0,0-3.627H78.187v-8.29H90.176a1.814,1.814,0,1,0,0-3.627H78.187V41.451Z" transform="translate(0 0.384)" fill="#fff"/>
  </g>
</svg>