<svg id="Group_214" data-name="Group 214" xmlns="http://www.w3.org/2000/svg" width="90.833" height="79.167" viewBox="0 0 90.833 79.167">
  <path id="Path_249" data-name="Path 249" d="M31.823,25H28.389A2.294,2.294,0,0,0,26.1,27.289a2.462,2.462,0,0,0,2.289,2.289h3.434a2.289,2.289,0,0,0,0-4.578Zm18.313,2.289A2.462,2.462,0,0,0,47.847,25H44.413a2.294,2.294,0,0,0-2.289,2.289,2.462,2.462,0,0,0,2.289,2.289h3.434A2.294,2.294,0,0,0,50.136,27.289Zm10.53,2.289H64.1A2.289,2.289,0,1,0,64.1,25H60.666a2.294,2.294,0,0,0-2.289,2.289A2.163,2.163,0,0,0,60.666,29.578Z" transform="translate(-0.994 -4.795)" fill="#EFEFEF"/>
  <path id="Path_250" data-name="Path 250" d="M99.941,86.981a10.328,10.328,0,0,0-5.3,1.526,5.575,5.575,0,0,1-3.406,1.145,4.6,4.6,0,0,1-3.406-1.145,8.773,8.773,0,0,0-5.3-1.526,7.487,7.487,0,0,0-3.217.572L91.8,65.234a2.041,2.041,0,0,0,.189-1.526c-.189-.572-.378-.954-.946-1.145L82.153,57.6V27.844a1.8,1.8,0,0,0-1.892-1.908H71.366V16.208A1.8,1.8,0,0,0,69.474,14.3H43.359a1.8,1.8,0,0,0-1.892,1.908v9.729H32.573a1.8,1.8,0,0,0-1.892,1.908V57.6l-8.894,5.151A1.95,1.95,0,0,0,20.84,63.9a2.168,2.168,0,0,0,.189,1.526L33.708,87.553a8.447,8.447,0,0,0-3.406-.572A10.328,10.328,0,0,0,25,88.507,5.575,5.575,0,0,1,21.6,89.651a4.913,4.913,0,0,1-3.406-1.145,8.772,8.772,0,0,0-5.3-1.526,1.908,1.908,0,0,0,0,3.815A4.913,4.913,0,0,1,16.3,91.941a8.773,8.773,0,0,0,5.3,1.526,10.328,10.328,0,0,0,5.3-1.526A5.575,5.575,0,0,1,30.3,90.8a4.6,4.6,0,0,1,3.406,1.145,8.773,8.773,0,0,0,5.3,1.526,10.328,10.328,0,0,0,5.3-1.526A5.575,5.575,0,0,1,47.712,90.8a4.6,4.6,0,0,1,3.406,1.145,8.773,8.773,0,0,0,5.3,1.526,10.328,10.328,0,0,0,5.3-1.526A5.575,5.575,0,0,1,65.122,90.8a4.6,4.6,0,0,1,3.406,1.145,8.773,8.773,0,0,0,5.3,1.526h1.135a9.558,9.558,0,0,0,4.163-1.526A5.575,5.575,0,0,1,82.531,90.8a4.6,4.6,0,0,1,3.406,1.145,8.773,8.773,0,0,0,5.3,1.526,10.328,10.328,0,0,0,5.3-1.526A5.575,5.575,0,0,1,99.941,90.8a1.908,1.908,0,0,0,0-3.815ZM45.252,17.924H67.771v7.821H45.252ZM34.465,29.752H78.557V55.5L57.552,43.487a1.707,1.707,0,0,0-1.892,0L34.655,55.5V29.752ZM56.417,47.3,87.641,65.043l-14,24.608H72.313A5.9,5.9,0,0,1,70.42,88.7a8.773,8.773,0,0,0-5.3-1.526,10.328,10.328,0,0,0-5.3,1.526,5.575,5.575,0,0,1-3.406,1.145A4.6,4.6,0,0,1,53.01,88.7a8.772,8.772,0,0,0-5.3-1.526,10.328,10.328,0,0,0-5.3,1.526l-1.135.572c-.189,0-.189,0-.378.191-.189,0-.189,0-.378.191-.189,0-.189,0-.378.191H39.007L25,65.234Z" transform="translate(-11 -14.3)" fill="#EFEFEF"/>
</svg>