<svg xmlns="http://www.w3.org/2000/svg" xmlns:xlink="http://www.w3.org/1999/xlink" width="87" height="91" viewBox="0 0 87 91">
  <defs>
    <clipPath id="clip-path">
      <rect id="Rectangle_1262" data-name="Rectangle 1262" width="87" height="91" transform="translate(0 0.097)" fill="none"/>
    </clipPath>
  </defs>
  <g id="Group_309" data-name="Group 309" transform="translate(0 -0.097)">
    <g id="Group_308" data-name="Group 308" clip-path="url(#clip-path)">
      <path id="Path_406" data-name="Path 406" d="M31.8,90.052H0V0H57.052V19.925a1.282,1.282,0,1,1-2.564,0V2.588H2.564V87.464H31.8a1.294,1.294,0,0,1,0,2.588" transform="translate(-0.189 0.682)" fill="#fff"/>
      <path id="Path_407" data-name="Path 407" d="M426.282,599.362A1.288,1.288,0,0,1,425,598.068V586.294a1.282,1.282,0,1,1,2.564,0v11.774a1.288,1.288,0,0,1-1.282,1.294" transform="translate(-370.701 -508.628)" fill="#fff"/>
      <path id="Path_408" data-name="Path 408" d="M295.052,285.94h-31.8v-2.588h29.231V227.588H240.564v57.059H238V225h57.052Z" transform="translate(-207.676 -195.206)" fill="#fff"/>
      <path id="Path_409" data-name="Path 409" d="M318.949,443.567H323.9a1.54,1.54,0,0,0,1.533-1.547v-5a1.54,1.54,0,0,0-1.533-1.547h-4.952a1.54,1.54,0,0,0-1.533,1.547v5a1.54,1.54,0,0,0,1.533,1.547" transform="translate(-276.91 -378.448)" fill="#fff"/>
      <path id="Path_410" data-name="Path 410" d="M431.534,443.567h4.952a1.54,1.54,0,0,0,1.533-1.547v-5a1.54,1.54,0,0,0-1.533-1.547h-4.952A1.54,1.54,0,0,0,430,437.021v5a1.54,1.54,0,0,0,1.533,1.547" transform="translate(-375.061 -378.448)" fill="#fff"/>
      <path id="Path_411" data-name="Path 411" d="M542.534,443.567h4.952a1.54,1.54,0,0,0,1.533-1.547v-5a1.54,1.54,0,0,0-1.533-1.547h-4.952A1.54,1.54,0,0,0,541,437.021v5a1.54,1.54,0,0,0,1.533,1.547" transform="translate(-471.83 -378.448)" fill="#fff"/>
      <path id="Path_412" data-name="Path 412" d="M318.949,324.567H323.9a1.54,1.54,0,0,0,1.533-1.547v-5a1.54,1.54,0,0,0-1.533-1.547h-4.952a1.54,1.54,0,0,0-1.533,1.547v5a1.54,1.54,0,0,0,1.533,1.547" transform="translate(-276.91 -274.845)" fill="#fff"/>
      <path id="Path_413" data-name="Path 413" d="M431.534,324.567h4.952a1.54,1.54,0,0,0,1.533-1.547v-5a1.54,1.54,0,0,0-1.533-1.547h-4.952A1.54,1.54,0,0,0,430,318.021v5a1.54,1.54,0,0,0,1.533,1.547" transform="translate(-375.061 -274.845)" fill="#fff"/>
      <path id="Path_414" data-name="Path 414" d="M542.534,324.567h4.952a1.54,1.54,0,0,0,1.533-1.547v-5a1.54,1.54,0,0,0-1.533-1.547h-4.952A1.54,1.54,0,0,0,541,318.021v5a1.54,1.54,0,0,0,1.533,1.547" transform="translate(-471.83 -274.845)" fill="#fff"/>
      <path id="Path_415" data-name="Path 415" d="M94.222,97.719H89.269a1.54,1.54,0,0,0-1.533,1.547v5a1.54,1.54,0,0,0,1.533,1.547h4.952a1.54,1.54,0,0,0,1.533-1.547v-5a1.54,1.54,0,0,0-1.533-1.547" transform="translate(-76.676 -84.394)" fill="#fff"/>
      <path id="Path_416" data-name="Path 416" d="M94.222,203.72H89.269a1.54,1.54,0,0,0-1.533,1.547v5a1.54,1.54,0,0,0,1.533,1.547h4.952a1.54,1.54,0,0,0,1.533-1.547v-5a1.54,1.54,0,0,0-1.533-1.547" transform="translate(-76.676 -176.68)" fill="#fff"/>
      <path id="Path_417" data-name="Path 417" d="M94.222,322.889H89.269a1.54,1.54,0,0,0-1.533,1.547v5a1.54,1.54,0,0,0,1.533,1.547h4.952a1.54,1.54,0,0,0,1.533-1.547v-5a1.54,1.54,0,0,0-1.533-1.547" transform="translate(-76.676 -280.43)" fill="#fff"/>
      <path id="Path_418" data-name="Path 418" d="M208.34,104.264v-5a1.54,1.54,0,0,0-1.533-1.547h-4.952a1.54,1.54,0,0,0-1.533,1.547v5a1.54,1.54,0,0,0,1.533,1.547h4.952a1.54,1.54,0,0,0,1.533-1.547" transform="translate(-174.827 -84.394)" fill="#fff"/>
      <path id="Path_419" data-name="Path 419" d="M323.34,104.264v-5a1.54,1.54,0,0,0-1.533-1.547h-4.952a1.54,1.54,0,0,0-1.533,1.547v5a1.54,1.54,0,0,0,1.533,1.547h4.952a1.54,1.54,0,0,0,1.533-1.547" transform="translate(-275.083 -84.394)" fill="#fff"/>
      <path id="Path_420" data-name="Path 420" d="M89.27,443.567h4.952a1.54,1.54,0,0,0,1.533-1.547v-5a1.54,1.54,0,0,0-1.533-1.547H89.27a1.54,1.54,0,0,0-1.533,1.547v5a1.54,1.54,0,0,0,1.533,1.547" transform="translate(-76.677 -378.448)" fill="#fff"/>
    </g>
  </g>
</svg>