<svg id="Group_212" data-name="Group 212" xmlns="http://www.w3.org/2000/svg" width="78" height="91" viewBox="0 0 78 91">
  <path id="Path_331" data-name="Path 331" d="M481.927,283.07a115.1,115.1,0,0,0-35.3-5.262,2.358,2.358,0,0,0,.075-.509l.653-41.582a11.986,11.986,0,0,0,3.506,1.113,21.246,21.246,0,0,0,3.357.264,36.026,36.026,0,0,0,20.533-7.2c12.531-9.636,13.11-26.287,13-31.153l-.038-1.528-1.492-.283a35.7,35.7,0,0,0-25.251,4.847c-9.585,6.072-13.017,14.766-14.676,18.952-.56,1.415-1.063,2.716-1.492,3.941a38.044,38.044,0,0,0-11.319-14.539,33.589,33.589,0,0,0-20.291-6.393l-1.585.02-.243,1.565c-.3,1.754-2.462,17.33,8.187,27.211,4.9,4.563,12.476,7.675,18.389,7.675a9.086,9.086,0,0,0,1.007-.037,9.58,9.58,0,0,0,4.644-1.358l-.616,38.432a1.848,1.848,0,0,0,.112.641,114.622,114.622,0,0,0-32.039,5.808,1.888,1.888,0,0,0,.578,3.677,2.056,2.056,0,0,0,.579-.094,111.6,111.6,0,0,1,68.628-.584,1.88,1.88,0,0,0,2.331-1.245A1.913,1.913,0,0,0,481.927,283.07Zm-32.17-60.948c1.51-3.81,4.644-11.73,13.185-17.161a31.8,31.8,0,0,1,21.074-4.564c-.094,5.714-1.474,18.763-11.525,26.495-6.752,5.205-15.871,7.09-21.037,6.223a5.6,5.6,0,0,1-3.673-1.791C446.735,229.74,448,226.535,449.757,222.123ZM442.241,235.1a5.016,5.016,0,0,1-3.543,1.32c-5.016.32-12.2-2.546-16.635-6.656-7.721-7.185-7.609-18.009-7.235-22.215a29.056,29.056,0,0,1,16.411,5.6c6.564,4.978,11.1,13.162,11.655,18.216A4.981,4.981,0,0,1,442.241,235.1Z" transform="translate(-409.756 -196.369)" fill="#efefef"/>
</svg>
