<svg xmlns="http://www.w3.org/2000/svg" xmlns:xlink="http://www.w3.org/1999/xlink" width="101" height="91" viewBox="0 0 101 91">
  <defs>
    <clipPath id="clip-path">
      <rect id="Rectangle_1319" data-name="Rectangle 1319" width="101" height="91" fill="#efefef"/>
    </clipPath>
  </defs>
  <g id="Group_303" data-name="Group 303" transform="translate(3.999)">
    <g id="Group_386" data-name="Group 386" transform="translate(-3.999)">
      <g id="Group_386-2" data-name="Group 386" clip-path="url(#clip-path)">
        <path id="Path_458" data-name="Path 458" d="M73.2,198.683H21.669a2.065,2.065,0,0,1-2.062-2.068v-8.273a2.065,2.065,0,0,1,2.062-2.068H73.2a2.065,2.065,0,0,1,2.061,2.068v8.273a2.065,2.065,0,0,1-2.061,2.068m-49.47-4.136H71.138V190.41H23.73Z" transform="translate(-11.362 -107.683)" fill="#efefef"/>
        <path id="Path_459" data-name="Path 459" d="M149.04,125.234H132.55a2.064,2.064,0,0,1-2.029-1.7L122.056,75.96a2.066,2.066,0,0,1,2.029-2.431h14.649a2.064,2.064,0,0,1,2.015,1.629l10.306,47.568a2.066,2.066,0,0,1-2.014,2.507M134.276,121.1h12.207l-9.41-43.432H126.547Z" transform="translate(-70.714 -42.506)" fill="#efefef"/>
        <path id="Path_460" data-name="Path 460" d="M73.2,111.065H21.668a2.067,2.067,0,0,1-2.029-2.432L29.945,50.724a2.063,2.063,0,0,1,2.029-1.7H62.893a2.063,2.063,0,0,1,2.029,1.7l10.306,57.909a2.067,2.067,0,0,1-2.029,2.432M24.13,106.928H70.737l-9.57-53.773H33.7Z" transform="translate(-11.362 -28.337)" fill="#efefef"/>
        <path id="Path_461" data-name="Path 461" d="M160.707,198.683h-16.49a2.065,2.065,0,0,1-2.062-2.068v-8.273a2.065,2.065,0,0,1,2.062-2.068h16.49a2.065,2.065,0,0,1,2.061,2.068v8.273a2.065,2.065,0,0,1-2.061,2.068m-14.429-4.136h12.368V190.41H146.278Z" transform="translate(-82.381 -107.683)" fill="#efefef"/>
        <path id="Path_462" data-name="Path 462" d="M175.136,198.683H144.218a2.065,2.065,0,0,1-2.062-2.068v-8.273a2.065,2.065,0,0,1,2.062-2.068h30.918a2.065,2.065,0,0,1,2.061,2.068v8.273a2.065,2.065,0,0,1-2.061,2.068m-28.858-4.136h26.8V190.41h-26.8Z" transform="translate(-82.381 -107.683)" fill="#efefef"/>
        <path id="Path_463" data-name="Path 463" d="M186.5,136.57a2.063,2.063,0,0,1-1.992-1.543l-9.9-37.754H163.826a2.068,2.068,0,0,1,0-4.136h12.367a2.061,2.061,0,0,1,1.993,1.542l10.306,39.3a2.066,2.066,0,0,1-1.994,2.6" transform="translate(-93.744 -53.842)" fill="#efefef"/>
        <path id="Path_464" data-name="Path 464" d="M77.1,41.821H46.179a2.065,2.065,0,0,1-2.062-2.068V31.48a2.065,2.065,0,0,1,2.062-2.068H77.1a2.064,2.064,0,0,1,2.061,2.068v8.273A2.065,2.065,0,0,1,77.1,41.821M48.24,37.684h26.8V33.548H48.24Z" transform="translate(-25.566 -17.003)" fill="#efefef"/>
        <path id="Path_465" data-name="Path 465" d="M98.939,210.018H2.061a2.068,2.068,0,0,1,0-4.136H98.939a2.068,2.068,0,0,1,0,4.136" transform="translate(0 -119.018)" fill="#efefef"/>
        <path id="Path_466" data-name="Path 466" d="M80.492,14.477a2.065,2.065,0,0,1-2.061-2.068V6.2A6.2,6.2,0,0,1,84.615,0H99.043a6.2,6.2,0,0,1,6.184,6.2,2.067,2.067,0,0,0,2.061,2.068h14.429A2.067,2.067,0,0,0,123.778,6.2,6.2,6.2,0,0,1,129.962,0h6.183a2.068,2.068,0,0,1,0,4.136h-6.183A2.067,2.067,0,0,0,127.9,6.2a6.2,6.2,0,0,1-6.184,6.2H107.288A6.2,6.2,0,0,1,101.1,6.2a2.067,2.067,0,0,0-2.062-2.069H84.615A2.067,2.067,0,0,0,82.553,6.2v6.2a2.065,2.065,0,0,1-2.061,2.068" transform="translate(-45.451)" fill="#efefef"/>
        <path id="Path_467" data-name="Path 467" d="M68.852,77.665H46.178a2.068,2.068,0,0,1,0-4.136H68.852a2.068,2.068,0,0,1,0,4.136" transform="translate(-25.566 -42.506)" fill="#efefef"/>
        <path id="Path_468" data-name="Path 468" d="M76.55,138.881a5.95,5.95,0,1,1,5.93-5.95,5.924,5.924,0,0,1-5.93,5.95m0-7.764a1.815,1.815,0,0,0,0,3.628,1.814,1.814,0,0,0,0-3.628" transform="translate(-40.952 -73.406)" fill="#efefef"/>
        <path id="Path_469" data-name="Path 469" d="M77.591,119.191a2.056,2.056,0,0,1-1.274-.442,1.872,1.872,0,0,0-1.132-.41,1.838,1.838,0,0,0-1.085.41,2.059,2.059,0,0,1-3.277-1.14L68.368,107.43a2.066,2.066,0,0,1,2-2.554h9.673a2.067,2.067,0,0,1,2,2.554l-2.454,10.178a2.06,2.06,0,0,1-2,1.582M75.185,114.2a5.745,5.745,0,0,1,.97.083l1.271-5.273H72.991l1.27,5.269a5.476,5.476,0,0,1,.923-.078" transform="translate(-39.587 -60.628)" fill="#efefef"/>
        <path id="Path_470" data-name="Path 470" d="M92.844,150.4a2.057,2.057,0,0,1-1.42-.568l-7.549-7.2a2.071,2.071,0,0,1,.593-3.394,1.943,1.943,0,0,0,.917-.776l.02-.035a1.527,1.527,0,0,0,.219-1.054,2.064,2.064,0,0,1,2.606-2.345l10.049,2.935a2.07,2.07,0,0,1,1.206,3.026l-4.86,8.38a2.06,2.06,0,0,1-1.49,1.007,2,2,0,0,1-.292.021m-4.4-9.118,3.933,3.749L94.6,141.2l-5.221-1.525a6.074,6.074,0,0,1-.406.837,5.435,5.435,0,0,1-.528.771" transform="translate(-48.235 -78.012)" fill="#efefef"/>
        <path id="Path_471" data-name="Path 471" d="M53.8,150.4a2.057,2.057,0,0,1-1.782-1.028l-4.86-8.379a2.071,2.071,0,0,1,1.206-3.026l10.05-2.935a2.064,2.064,0,0,1,2.606,2.345,1.523,1.523,0,0,0,.219,1.054l.02.035a1.941,1.941,0,0,0,.917.776,2.072,2.072,0,0,1,.593,3.394l-7.549,7.2a2.058,2.058,0,0,1-1.42.569m-1.752-9.2,2.222,3.832,3.933-3.749a5.492,5.492,0,0,1-.527-.771,6.1,6.1,0,0,1-.407-.837Z" transform="translate(-27.167 -78.011)" fill="#efefef"/>
      </g>
    </g>
  </g>
</svg>
