<svg xmlns="http://www.w3.org/2000/svg" width="85" height="92.034" viewBox="0 0 85 92.034">
  <g id="Group_226" data-name="Group 226" transform="translate(0.5 0.534)">
    <path id="Path_341" data-name="Path 341" d="M352.53,209.977l-4.662-.128c-1.229-2.24-6.41-10.509-16.545-12.014a21.589,21.589,0,0,0-11.175,1.333V161.813l6.926,20.2a.846.846,0,0,0,.705.573.607.607,0,0,0,.095,0,.844.844,0,0,0,.72-.4,26.108,26.108,0,0,0,3.025-19.655,25.5,25.5,0,0,0-9.893-14.242,6.028,6.028,0,0,0,.031-.632,6.254,6.254,0,0,0-2.187-4.774l19.621-20.649a.872.872,0,0,0,.184-.9.852.852,0,0,0-.72-.556,25.165,25.165,0,0,0-18.649,6.146,25.628,25.628,0,0,0-8,15.049,6.79,6.79,0,0,0-2.519,2.769l-26.431-12.973a.838.838,0,0,0-.9.1.869.869,0,0,0-.3.866,25.8,25.8,0,0,0,11.563,16.067,24.345,24.345,0,0,0,12.484,3.364,24.757,24.757,0,0,0,4.322-.371c.121.152.25.3.383.438v48.622a21.389,21.389,0,0,0-8.909.819,23.263,23.263,0,0,0-11.452,8.158l-20.055.14a.861.861,0,0,0,0,1.722h.007l20.47-.143a.851.851,0,0,0,.674-.342,21.628,21.628,0,0,1,10.851-7.89,19.6,19.6,0,0,1,8.409-.7q.869.114,1.7.288a27.8,27.8,0,0,1,11.512,5.612.841.841,0,0,0,1.2-.093.87.87,0,0,0-.092-1.215,28.681,28.681,0,0,0-6.271-3.994l-.206-.1c-.407-.187-.827-.371-1.263-.548.378-.236.8-.485,1.263-.733.514-.275,1.081-.553,1.7-.819a19.986,19.986,0,0,1,10.928-1.488c10.232,1.52,15.01,10.526,15.522,11.547a.848.848,0,0,0,.732.472l5.154.14a.074.074,0,0,0,.024,0,.861.861,0,0,0,.022-1.722Zm-58.25-62.655a23.77,23.77,0,0,1-10.266-13.168l24.9,12.223a6.148,6.148,0,0,0-.136,1.281,6.618,6.618,0,0,0,.509,2.553A23.107,23.107,0,0,1,294.28,147.322Zm26.852-19.1a23.255,23.255,0,0,1,15.529-5.8L318.149,141.9a6.7,6.7,0,0,0-2.844-.824,5.4,5.4,0,0,0-1.442.135A23.762,23.762,0,0,1,321.133,128.218Zm-2.681,71.7a22.979,22.979,0,0,0-3.263,1.936,25.035,25.035,0,0,0-2.877-.733V153.515a6.389,6.389,0,0,0,5.115.354l1.025,2.993Zm0-48.627a4.725,4.725,0,0,1-6.14.187,4.407,4.407,0,0,1-.5-.457,4.877,4.877,0,0,1-1.336-3.362,5.044,5.044,0,0,1,2.674-4.363l.017-.007a4.168,4.168,0,0,1,1.917-.494l.15,0a5.084,5.084,0,0,1,4.824,4.862,4.878,4.878,0,0,1-1.336,3.362A3.6,3.6,0,0,1,318.452,151.292Zm.5,1.788A6.6,6.6,0,0,0,321.3,150.1a23.737,23.737,0,0,1,8.683,12.872,24.128,24.128,0,0,1-1.92,16.675l-7.91-23.071Z" transform="translate(-269.355 -120.699)" fill="#efefef" stroke="#efefef" stroke-width="1"/>
  </g>
</svg>
