<svg xmlns="http://www.w3.org/2000/svg" width="91" height="91" viewBox="0 0 91 91">
  <path id="Path_338" data-name="Path 338" d="M89.666,85.061a10.8,10.8,0,0,0-6.19,1.8,8.912,8.912,0,0,1-9.706,0,11.539,11.539,0,0,0-12.379,0,8.911,8.911,0,0,1-9.705,0,11.538,11.538,0,0,0-12.378,0A8.224,8.224,0,0,1,34.456,88.3,8.225,8.225,0,0,1,29.6,86.862a10.8,10.8,0,0,0-6.189-1.8,10.8,10.8,0,0,0-6.189,1.8A8.225,8.225,0,0,1,12.373,88.3a8.224,8.224,0,0,1-4.852-1.437,10.8,10.8,0,0,0-6.189-1.8,1.349,1.349,0,0,0,0,2.7A8.224,8.224,0,0,1,6.184,89.2,10.8,10.8,0,0,0,12.373,91a10.8,10.8,0,0,0,6.189-1.8,8.226,8.226,0,0,1,4.853-1.437A8.224,8.224,0,0,1,28.267,89.2,10.8,10.8,0,0,0,34.456,91a10.8,10.8,0,0,0,6.189-1.8,8.91,8.91,0,0,1,9.7,0,11.538,11.538,0,0,0,12.378,0,8.912,8.912,0,0,1,9.706,0,11.539,11.539,0,0,0,12.379,0,8.226,8.226,0,0,1,4.853-1.437,1.349,1.349,0,0,0,0-2.7ZM1.332,67.165H7.908a1.349,1.349,0,0,0,0-2.7H5.953V9.087L22.523,28.134H19.106a1.341,1.341,0,0,0-1.333,1.349v8.132A3.152,3.152,0,0,0,16,40.454v2.428H14.662a1.329,1.329,0,0,0-1.129.632,1.363,1.363,0,0,0-.071,1.3l2.181,4.561a3.125,3.125,0,0,0,2.8,1.777h.218V71.212a1.333,1.333,0,1,0,2.666,0v-4.5H37.146v4.5a1.333,1.333,0,1,0,2.666,0V51.157H64.517V71.212a1.333,1.333,0,1,0,2.666,0v-4.5H83v4.5a1.333,1.333,0,1,0,2.666,0V51.157h.219a3.125,3.125,0,0,0,2.8-1.777l2.181-4.561a1.363,1.363,0,0,0-.071-1.3,1.329,1.329,0,0,0-1.129-.632H88.333V40.454a3.133,3.133,0,0,0-3.11-3.148H80.867L79.388,26.966a2.777,2.777,0,0,0,2.523-2.776V21.671a2.775,2.775,0,0,0-2.755-2.788h-.921L76.692,8.092h.266A2.775,2.775,0,0,0,79.713,5.3V2.785A2.775,2.775,0,0,0,76.958,0H62.028a2.775,2.775,0,0,0-2.755,2.788V5.3a2.775,2.775,0,0,0,2.755,2.788h.266L60.751,18.884H59.83a2.775,2.775,0,0,0-2.755,2.788V24.19A2.777,2.777,0,0,0,59.6,26.966L58.119,37.307h-3.2V20.671a8.083,8.083,0,1,0-16.165,0v5.874L8.959.328l0,0Q8.919.294,8.879.264L8.854.244C8.832.229,8.809.215,8.787.2L8.744.174c-.018-.011-.038-.02-.057-.03L8.63.116,8.573.092,8.514.069C8.492.062,8.47.056,8.448.049L8.394.034C8.37.028,8.345.024,8.321.02L8.271.011C8.247.007,8.222.005,8.2,0L8.145,0H8.014L7.958,0Q7.9.01,7.838.022t-.1.022l-.015,0-.011,0c-.036.01-.071.022-.105.036l-.02.008q-.051.021-.1.046l-.02.01C7.438.167,7.407.185,7.377.2L7.355.218c-.027.018-.054.038-.08.058L7.249.3q-.036.03-.07.062L7.152.383,7.139.4,3.38,4.222a1.36,1.36,0,0,0-.093,1.8V64.466H1.332a1.349,1.349,0,0,0,0,2.7Zm35.813-3.148H21.327V59.7H37.146Zm0-7.015H21.327V51.157H37.146ZM83,64.017H67.183V59.7H83ZM83,57H67.183V51.157H83ZM87.54,45.581,86.285,48.2a.446.446,0,0,1-.4.254H18.443a.446.446,0,0,1-.4-.254L16.788,45.58ZM62.028,5.394a.089.089,0,0,1-.089-.09V2.785a.089.089,0,0,1,.089-.09h14.93a.089.089,0,0,1,.089.09V5.3a.089.089,0,0,1-.089.09Zm5.594,7.121-3.825,3.9.973-6.809Zm-.584-4.423h4.916L69.5,10.6ZM69.5,14.428l4.375,4.455H65.137Zm1.877-1.916,2.838-2.9.968,6.774Zm-11.637,9.16a.089.089,0,0,1,.089-.09H79.156a.089.089,0,0,1,.089.09V24.19a.089.089,0,0,1-.089.09H59.83a.089.089,0,0,1-.089-.09Zm7.412,9.818-6.122,4.293,1.116-7.8ZM65.4,26.978h8.187l-4.093,2.871Zm4.094,6.153,5.955,4.176H63.538Zm2.341-1.641,5.006-3.51,1.116,7.8ZM41.415,20.671a5.417,5.417,0,1,1,10.833,0v.181H41.415Zm0,2.879H52.249v4.63H41.415Zm0,7.328H52.249v6.429H41.415ZM59.272,40h25.95a.448.448,0,0,1,.444.45v2.428H18.661V40.454a.448.448,0,0,1,.444-.45ZM36.491,28.134H28.762l3.583-3.648Zm-6.162-5.423-3.756,3.824-.721-7.763ZM25.2,30.838l.012,0q.057.013.115.022l.01,0q.064.009.129.011l.047,0c.02,0,.04,0,.06,0H25.6l.041,0h0l.058-.008.03,0,.045-.007.032-.008.018,0,.031-.008h12.9v6.475H20.439V30.832h4.733l.026.007ZM23.8,25.52l-3.526-4.053,2.878-2.93Zm-5.292-6.083-3.62-4.161,6.575,1.153Zm1.225-6.049-5.6-.982,2.078-2.115ZM14.2,8.516,12.055,10.7l-1.488-5.38ZM7.417,3.939,8.532,7.968,6.149,5.23ZM1.332,76.967A8.224,8.224,0,0,1,6.184,78.4a10.8,10.8,0,0,0,6.189,1.8,10.8,10.8,0,0,0,6.189-1.8,8.226,8.226,0,0,1,4.853-1.437A8.224,8.224,0,0,1,28.267,78.4a10.8,10.8,0,0,0,6.189,1.8,10.8,10.8,0,0,0,6.189-1.8,8.91,8.91,0,0,1,9.7,0,11.538,11.538,0,0,0,12.378,0,8.912,8.912,0,0,1,9.706,0,11.539,11.539,0,0,0,12.379,0,8.226,8.226,0,0,1,4.853-1.437,1.349,1.349,0,0,0,0-2.7,10.8,10.8,0,0,0-6.19,1.8,8.912,8.912,0,0,1-9.706,0,11.539,11.539,0,0,0-12.379,0,8.911,8.911,0,0,1-9.705,0,11.538,11.538,0,0,0-12.378,0,8.224,8.224,0,0,1-4.852,1.437A8.225,8.225,0,0,1,29.6,76.07a10.8,10.8,0,0,0-6.189-1.8,10.8,10.8,0,0,0-6.189,1.8,8.225,8.225,0,0,1-4.852,1.437A8.224,8.224,0,0,1,7.521,76.07a10.8,10.8,0,0,0-6.189-1.8,1.349,1.349,0,0,0,0,2.7Z" transform="translate(0.001 0.003)" fill="#efefef"/>
</svg>
