<svg xmlns="http://www.w3.org/2000/svg" width="25" height="25" viewBox="0 0 25 25">
  <path id="Path_33" data-name="Path 33" d="M23.25,2H5.75A3.75,3.75,0,0,0,2,5.75V7.212a3.75,3.75,0,0,0,.313,1.5v.075A3.513,3.513,0,0,0,3.05,9.862l7.7,7.65V25.75a1.244,1.244,0,0,0,1.813,1.112l5-2.5a1.25,1.25,0,0,0,.688-1.113V17.512l7.65-7.65a3.513,3.513,0,0,0,.737-1.075V8.712A3.75,3.75,0,0,0,27,7.212V5.75A3.75,3.75,0,0,0,23.25,2ZM16.112,16.112A1.25,1.25,0,0,0,15.75,17v5.475l-2.5,1.25V17a1.25,1.25,0,0,0-.363-.888L6.263,9.5H22.738ZM24.5,7H4.5V5.75A1.25,1.25,0,0,1,5.75,4.5h17.5A1.25,1.25,0,0,1,24.5,5.75Z" transform="translate(-2 -2)" fill="#102970"/>
</svg>
