
<svg xmlns="http://www.w3.org/2000/svg" xmlns:xlink="http://www.w3.org/1999/xlink" width="263" height="40" viewBox="0 0 263 40">
  <defs>
    <clipPath id="clip-path">
      <rect id="Rectangle_1328" data-name="Rectangle 1328" width="263" height="40" fill="none"/>
    </clipPath>
  </defs>
  <g id="Group_396" data-name="Group 396" transform="translate(0 0)">
    <g id="Group_395" data-name="Group 395" transform="translate(0 0)">
      <g id="Group_394" data-name="Group 394" clip-path="url(#clip-path)">
        <path id="Path_538" data-name="Path 538" d="M115.661,19.8a4.669,4.669,0,0,1-1.038-3.276v-5.6H113.1V7.51h1.523V3.278l4.292-.478V7.442h3.254v3.413h-3.254v4.778a2.364,2.364,0,0,0,.208,1.092.8.8,0,0,0,.762.41,3.14,3.14,0,0,0,1.315-.341l1.038,3.072a8.537,8.537,0,0,1-1.661.683,8.857,8.857,0,0,1-2.077.2,3.252,3.252,0,0,1-2.838-.956" transform="translate(-34.802 -0.889)" fill="#efefef"/>
        <rect id="Rectangle_1326" data-name="Rectangle 1326" width="4.223" height="19.795" transform="translate(89.582)" fill="#efefef"/>
        <path id="Path_539" data-name="Path 539" d="M152.892,9.6V22.779h-4.015V21.345h-.138a4.353,4.353,0,0,1-3.669,1.638,6.565,6.565,0,0,1-2.561-.478,6.919,6.919,0,0,1-2.008-1.365,6.849,6.849,0,0,1-1.315-2.184,8.78,8.78,0,0,1-.485-2.8,7.094,7.094,0,0,1,.485-2.73,7.528,7.528,0,0,1,1.246-2.184,4.775,4.775,0,0,1,1.938-1.365,6.951,6.951,0,0,1,2.423-.478,4.629,4.629,0,0,1,3.669,1.638h.069V9.673h4.361Zm-4.915,8.805a3.02,3.02,0,0,0,.831-2.253,4.075,4.075,0,0,0-.346-1.638,2.651,2.651,0,0,0-1.038-1.092,2.586,2.586,0,0,0-1.454-.41,2.65,2.65,0,0,0-2.077.887,3.02,3.02,0,0,0-.831,2.253,3.243,3.243,0,0,0,.831,2.253,2.9,2.9,0,0,0,2.077.887,2.607,2.607,0,0,0,2.008-.887" transform="translate(-42.68 -2.984)" fill="#efefef"/>
        <path id="Path_540" data-name="Path 540" d="M173.346,9.573a4.928,4.928,0,0,1,1.523.887,5.142,5.142,0,0,1,1.038,1.706,9.434,9.434,0,0,1,.346,2.594v7.918h-4.292V15.853a4.011,4.011,0,0,0-.277-1.706,1.835,1.835,0,0,0-.692-.887,2.708,2.708,0,0,0-1.177-.273,2.416,2.416,0,0,0-1.246.341,2.116,2.116,0,0,0-.831,1.024,4.164,4.164,0,0,0-.346,1.706v6.621H163.1V9.573h4.292v1.57a5.7,5.7,0,0,1,1.8-1.365,4.982,4.982,0,0,1,2.215-.478,8.28,8.28,0,0,1,1.938.273" transform="translate(-50.188 -2.952)" fill="#efefef"/>
        <path id="Path_541" data-name="Path 541" d="M186.861,19.8a4.669,4.669,0,0,1-1.038-3.276v-5.6H184.3V7.51h1.523V3.278l4.292-.478V7.442h3.254v3.413h-3.254v4.778a2.364,2.364,0,0,0,.208,1.092.8.8,0,0,0,.762.41,3.14,3.14,0,0,0,1.315-.341l1.038,3.072a8.537,8.537,0,0,1-1.661.683,8.857,8.857,0,0,1-2.077.2,3.185,3.185,0,0,1-2.838-.956" transform="translate(-56.711 -0.889)" fill="#efefef"/>
        <path id="Path_542" data-name="Path 542" d="M200.262,4.4a2.351,2.351,0,0,1-.762-1.775,2.793,2.793,0,0,1,.346-1.3,2.431,2.431,0,0,1,.969-.887A2.9,2.9,0,0,1,202.131.1,2.526,2.526,0,0,1,204,.783a2.351,2.351,0,0,1,.762,1.775A2.351,2.351,0,0,1,204,4.332a2.635,2.635,0,0,1-1.869.683,2.4,2.4,0,0,1-1.869-.614m-.208,2.253h4.223V19.827h-4.223Z" transform="translate(-61.389 -0.032)" fill="#efefef"/>
        <path id="Path_543" data-name="Path 543" d="M213.092,22.165a6.4,6.4,0,0,1-2.492-2.389,6.783,6.783,0,0,1-.9-3.549,6.783,6.783,0,0,1,.9-3.549,6.142,6.142,0,0,1,2.561-2.389,8.077,8.077,0,0,1,3.669-.887,7.736,7.736,0,0,1,3.254.683,7.173,7.173,0,0,1,2.561,1.911l-2.838,2.389a3.567,3.567,0,0,0-2.769-1.3,2.89,2.89,0,0,0-2.146.819,2.965,2.965,0,0,0-.831,2.184,3.265,3.265,0,0,0,.208,1.229,2.311,2.311,0,0,0,.623.956,2.351,2.351,0,0,0,.969.614,3.4,3.4,0,0,0,1.246.2,3.53,3.53,0,0,0,2.7-1.16l2.908,2.526a6.808,6.808,0,0,1-2.492,1.775,8.349,8.349,0,0,1-3.531.683,7.121,7.121,0,0,1-3.6-.751" transform="translate(-64.527 -2.984)" fill="#efefef"/>
        <path id="Path_544" data-name="Path 544" d="M232.6,1h6.784a7.631,7.631,0,0,1,2.908.478A4.533,4.533,0,0,1,244.3,2.706a5.067,5.067,0,0,1,1.108,1.843,6.443,6.443,0,0,1,.346,2.389,6.2,6.2,0,0,1-.485,2.594,5.424,5.424,0,0,1-1.385,1.843,7.031,7.031,0,0,1-2.146,1.092,11.365,11.365,0,0,1-2.769.341h-4.015v7.3H232.6Zm6.161,9.625a6.647,6.647,0,0,0,2.077-.273,4.233,4.233,0,0,0,1.454-.819,3.29,3.29,0,0,0,.831-1.16,3.628,3.628,0,0,0,.277-1.5,3.339,3.339,0,0,0-1.108-2.73,4.833,4.833,0,0,0-3.115-.956h-4.154v7.509Z" transform="translate(-71.574 -0.317)" fill="#efefef"/>
        <path id="Path_545" data-name="Path 545" d="M268.161,9.7V22.811h-2.146V20.763h-.069a5.861,5.861,0,0,1-2.008,1.638,5.533,5.533,0,0,1-2.631.614,6.565,6.565,0,0,1-2.561-.478,5.482,5.482,0,0,1-2.077-1.365,7.506,7.506,0,0,1-1.385-2.116,6.867,6.867,0,0,1-.485-2.73,7.2,7.2,0,0,1,.831-3.481,6.213,6.213,0,0,1,2.354-2.457,6.051,6.051,0,0,1,3.323-.887,6.631,6.631,0,0,1,2.561.546,5.009,5.009,0,0,1,2.008,1.57h.069V9.7h2.215m-4.846,10.922a4.128,4.128,0,0,0,1.454-.956,3.781,3.781,0,0,0,.969-1.5,5.45,5.45,0,0,0,0-3.823,4.594,4.594,0,0,0-.9-1.5,5.181,5.181,0,0,0-1.385-1.024,3.74,3.74,0,0,0-1.731-.341,4.109,4.109,0,0,0-3.185,1.3,4.932,4.932,0,0,0-1.315,3.481,4.665,4.665,0,0,0,1.246,3.345,4.16,4.16,0,0,0,3.254,1.3,3.419,3.419,0,0,0,1.592-.273" transform="translate(-78.405 -3.015)" fill="#efefef"/>
        <path id="Path_546" data-name="Path 546" d="M287.131,9.586v2.389c-.346,0-.623-.068-.9-.068a3.766,3.766,0,0,0-2.146.614,3.563,3.563,0,0,0-1.385,1.638,4.985,4.985,0,0,0-.485,2.321v6.28H280V9.722h2.215v2.253h.069a5.021,5.021,0,0,1,4.292-2.389,1.5,1.5,0,0,1,.554,0" transform="translate(-86.16 -3.033)" fill="#efefef"/>
        <path id="Path_547" data-name="Path 547" d="M293.761,16.725v-7.3H292.1V7.51h1.661V3l2.215-.2V7.51h4.361V9.421h-4.361v6.962a3.632,3.632,0,0,0,.346,1.775,1.439,1.439,0,0,0,1.246.546,4.17,4.17,0,0,0,2.215-.683l.554,1.911-.831.41a3.791,3.791,0,0,1-1.038.273,8.639,8.639,0,0,1-1.385.137c-2.215.068-3.323-1.3-3.323-4.027" transform="translate(-89.883 -0.889)" fill="#efefef"/>
        <path id="Path_548" data-name="Path 548" d="M318.892,10.962a5.937,5.937,0,0,1,1.246,4.1v7.782h-2.215V15.672a7.7,7.7,0,0,0-.208-1.911,2.624,2.624,0,0,0-.692-1.3,2.5,2.5,0,0,0-1.038-.683,4.083,4.083,0,0,0-1.315-.2,3.818,3.818,0,0,0-3.046,1.3,4.958,4.958,0,0,0-1.108,3.413v6.553H308.3V9.734h2.215v2.253h.069a5.744,5.744,0,0,1,2.077-1.775,6.107,6.107,0,0,1,2.769-.614,4.123,4.123,0,0,1,3.461,1.365" transform="translate(-94.868 -3.044)" fill="#efefef"/>
        <path id="Path_549" data-name="Path 549" d="M342.461,16.972H332.285a4.449,4.449,0,0,0,1.454,2.935A4.22,4.22,0,0,0,336.715,21a4.5,4.5,0,0,0,2.146-.478,4.9,4.9,0,0,0,1.592-1.3l1.523,1.3a5.878,5.878,0,0,1-2.285,1.775,7.454,7.454,0,0,1-3.115.683,6.909,6.909,0,0,1-2.631-.478,5.483,5.483,0,0,1-2.077-1.365,6.646,6.646,0,0,1-1.385-2.116,7.094,7.094,0,0,1-.485-2.73,7.332,7.332,0,0,1,.485-2.73,6.506,6.506,0,0,1,1.315-2.116,5.8,5.8,0,0,1,2.008-1.365A6.007,6.007,0,0,1,336.3,9.6a6.391,6.391,0,0,1,3.254.819A5.373,5.373,0,0,1,341.7,12.74a7.448,7.448,0,0,1,.762,3.345,1.916,1.916,0,0,1,0,.887m-8.723-4.437a4.241,4.241,0,0,0-1.454,2.594h8.031A4.459,4.459,0,0,0,339,12.535a3.7,3.7,0,0,0-2.561-.956,4.2,4.2,0,0,0-2.7.956" transform="translate(-101.545 -3.047)" fill="#efefef"/>
        <path id="Path_550" data-name="Path 550" d="M360.031,9.586v2.389c-.346,0-.623-.068-.9-.068a3.765,3.765,0,0,0-2.146.614,3.563,3.563,0,0,0-1.385,1.638,4.985,4.985,0,0,0-.485,2.321v6.28H352.9V9.722h2.215v2.253h.069a5.021,5.021,0,0,1,4.292-2.389,1.4,1.4,0,0,1,.554,0" transform="translate(-108.592 -3.033)" fill="#efefef"/>
        <path id="Path_551" data-name="Path 551" d="M365.3,21.036l1.177-1.638a5.771,5.771,0,0,0,1.8,1.16,5.684,5.684,0,0,0,2.285.41,3.167,3.167,0,0,0,1.869-.478,1.442,1.442,0,0,0,.692-1.229.506.506,0,0,0-.069-.341c0-.137-.069-.2-.138-.341a.943.943,0,0,0-.208-.273c-.069-.068-.208-.137-.346-.273l-.415-.2a3.4,3.4,0,0,0-.485-.2,4.812,4.812,0,0,1-.554-.2,3.249,3.249,0,0,0-.623-.2c-.138-.068-.277-.068-.346-.137a11.92,11.92,0,0,1-1.246-.478,7.6,7.6,0,0,1-1.038-.546,3.267,3.267,0,0,1-.9-.751,4.336,4.336,0,0,1-.554-.956,3.923,3.923,0,0,1-.208-1.3,3.118,3.118,0,0,1,1.246-2.526A4.745,4.745,0,0,1,370.354,9.5a6.941,6.941,0,0,1,4.569,1.638l-1.177,1.706a5.323,5.323,0,0,0-3.531-1.365,2.219,2.219,0,0,0-1.385.41,1.307,1.307,0,0,0-.623,1.092,1.142,1.142,0,0,0,.208.683,1.407,1.407,0,0,0,.554.546,4.153,4.153,0,0,0,.762.41,8.125,8.125,0,0,0,1.038.41c1.454.546,2.285.887,2.561,1.024a3.846,3.846,0,0,1,1.8,1.638,3.128,3.128,0,0,1,.277,1.433,3.128,3.128,0,0,1-.277,1.433,2.947,2.947,0,0,1-.9,1.16,4.589,4.589,0,0,1-1.523.819,6.647,6.647,0,0,1-2.077.273,6.956,6.956,0,0,1-5.331-1.775" transform="translate(-112.407 -3.015)" fill="#efefef"/>
        <path id="Path_552" data-name="Path 552" d="M12.085,32.578A1.379,1.379,0,0,1,10.7,31.213a1.338,1.338,0,0,1,.415-.956l7.407-7.3a1.386,1.386,0,0,1,1.731-.2l4.638,3,8.446-8.328a1.362,1.362,0,0,1,1.938,1.911L26,28.551a1.386,1.386,0,0,1-1.731.2l-4.638-3-6.646,6.553a1.749,1.749,0,0,1-.9.273" transform="translate(-3.293 -5.411)" fill="#efefef"/>
        <path id="Path_553" data-name="Path 553" d="M31.014,40.317H8.792A8.744,8.744,0,0,1,0,31.648V9.669A8.744,8.744,0,0,1,8.792,1H31.084a8.744,8.744,0,0,1,8.792,8.669v21.98a8.849,8.849,0,0,1-8.861,8.669M8.792,3.73A5.985,5.985,0,0,0,2.769,9.669v21.98a5.985,5.985,0,0,0,6.023,5.939H31.084a5.985,5.985,0,0,0,6.023-5.939V9.669A5.985,5.985,0,0,0,31.084,3.73Z" transform="translate(0 -0.317)" fill="#efefef"/>
        <path id="Path_554" data-name="Path 554" d="M41.723,25.291a1.379,1.379,0,0,1-1.385-1.365v-4.1H36.185a1.365,1.365,0,1,1,0-2.73h5.538a1.379,1.379,0,0,1,1.385,1.365v5.461a1.379,1.379,0,0,1-1.385,1.365" transform="translate(-10.708 -5.428)" fill="#efefef"/>
        <rect id="Rectangle_1327" data-name="Rectangle 1327" width="1.246" height="9.898" transform="translate(59.744 27.577)" fill="#efefef"/>
        <path id="Path_555" data-name="Path 555" d="M105.761,40.4v9.9h-1.177l-5.469-7.782h-.069V50.3H97.8V40.4h1.177l5.538,7.782h.069V40.4Z" transform="translate(-30.094 -12.823)" fill="#efefef"/>
        <path id="Path_556" data-name="Path 556" d="M119.046,40.4l2.977,8.328h.138l2.977-8.328h1.246l-3.669,9.9h-1.246L117.8,40.4h1.246" transform="translate(-36.249 -12.823)" fill="#efefef"/>
        <path id="Path_557" data-name="Path 557" d="M138.8,50.3V40.4h6.092v1.092h-4.846v3.345h4.569v1.092h-4.569v3.345h4.915v1.092H138.8Z" transform="translate(-42.711 -12.823)" fill="#efefef"/>
        <path id="Path_558" data-name="Path 558" d="M162.284,42.826a1.589,1.589,0,0,0-.692-1.16,2.661,2.661,0,0,0-1.523-.41,3.275,3.275,0,0,0-1.177.2,1.389,1.389,0,0,0-.762.614,1.3,1.3,0,0,0-.277.819,1.142,1.142,0,0,0,.208.683,1.606,1.606,0,0,0,.485.478,2.477,2.477,0,0,0,.623.273l.623.2,1.038.273a6.5,6.5,0,0,1,.9.273,3.747,3.747,0,0,1,.9.478,2.926,2.926,0,0,1,.762.819,2.068,2.068,0,0,1,.277,1.16,2.5,2.5,0,0,1-.415,1.433,3.125,3.125,0,0,1-1.246,1.024A4.368,4.368,0,0,1,160,50.4a5.352,5.352,0,0,1-1.869-.341,2.649,2.649,0,0,1-1.731-2.389h1.246a1.338,1.338,0,0,0,.415.956,1.767,1.767,0,0,0,.831.546,2.906,2.906,0,0,0,1.108.2,3.4,3.4,0,0,0,1.246-.2,2.109,2.109,0,0,0,.9-.614,1.617,1.617,0,0,0,.346-.956,1.079,1.079,0,0,0-.277-.819,2.066,2.066,0,0,0-.762-.478,4.04,4.04,0,0,0-.969-.341l-1.246-.341a4.807,4.807,0,0,1-1.869-.956,2.01,2.01,0,0,1-.692-1.638,2.123,2.123,0,0,1,.485-1.433,2.9,2.9,0,0,1,1.246-.956,4.88,4.88,0,0,1,1.731-.341,4.591,4.591,0,0,1,1.731.341,2.7,2.7,0,0,1,1.177.956,2.338,2.338,0,0,1,.485,1.365h-1.246Z" transform="translate(-48.126 -12.791)" fill="#efefef"/>
        <path id="Path_559" data-name="Path 559" d="M175.1,41.492V40.4h7.546v1.092h-3.185v8.874h-1.246V41.492Z" transform="translate(-53.88 -12.823)" fill="#efefef"/>
        <path id="Path_560" data-name="Path 560" d="M194.9,40.4h1.454l3.392,8.259h.138l3.392-8.259h1.454v9.9h-1.108V42.789h-.069l-3.115,7.577h-1.108l-3.115-7.577h-.069v7.577h-1.108V40.4Z" transform="translate(-59.973 -12.823)" fill="#efefef"/>
        <path id="Path_561" data-name="Path 561" d="M218.9,50.3V40.4h6.092v1.092h-4.846v3.345h4.569v1.092h-4.569v3.345h4.915v1.092H218.9Z" transform="translate(-67.358 -12.823)" fill="#efefef"/>
        <path id="Path_562" data-name="Path 562" d="M245.061,40.4v9.9h-1.177l-5.469-7.782h-.069V50.3H237.1V40.4h1.177l5.538,7.782h.069V40.4Z" transform="translate(-72.959 -12.823)" fill="#efefef"/>
        <path id="Path_563" data-name="Path 563" d="M257.5,41.492V40.4h7.546v1.092h-3.185v8.874h-1.246V41.492Z" transform="translate(-79.236 -12.823)" fill="#efefef"/>
        <path id="Path_564" data-name="Path 564" d="M282.684,42.826a1.589,1.589,0,0,0-.692-1.16,2.661,2.661,0,0,0-1.523-.41,3.275,3.275,0,0,0-1.177.2,1.388,1.388,0,0,0-.762.614,1.3,1.3,0,0,0-.277.819,1.142,1.142,0,0,0,.208.683,1.606,1.606,0,0,0,.485.478,2.477,2.477,0,0,0,.623.273l.623.2,1.038.273a6.5,6.5,0,0,1,.9.273,3.747,3.747,0,0,1,.9.478,2.925,2.925,0,0,1,.762.819,2.068,2.068,0,0,1,.277,1.16,2.5,2.5,0,0,1-.415,1.433,3.125,3.125,0,0,1-1.246,1.024,4.368,4.368,0,0,1-2.008.41,5.352,5.352,0,0,1-1.869-.341,2.649,2.649,0,0,1-1.731-2.389h1.246a1.339,1.339,0,0,0,.415.956,1.767,1.767,0,0,0,.831.546,2.906,2.906,0,0,0,1.108.2,3.4,3.4,0,0,0,1.246-.2,2.109,2.109,0,0,0,.9-.614,1.617,1.617,0,0,0,.346-.956,1.079,1.079,0,0,0-.277-.819,2.066,2.066,0,0,0-.762-.478,4.04,4.04,0,0,0-.969-.341l-1.246-.341a4.807,4.807,0,0,1-1.869-.956,2.01,2.01,0,0,1-.692-1.638,2.123,2.123,0,0,1,.485-1.433,2.9,2.9,0,0,1,1.246-.956,4.88,4.88,0,0,1,1.731-.341,4.591,4.591,0,0,1,1.731.341,2.7,2.7,0,0,1,1.177.956,2.338,2.338,0,0,1,.485,1.365h-1.246Z" transform="translate(-85.175 -12.791)" fill="#efefef"/>
        <path id="Path_565" data-name="Path 565" d="M308.1,50.3V40.4h6.023v1.092h-4.846v3.345h4.361v1.092h-4.361v4.437H308.1Z" transform="translate(-94.806 -12.823)" fill="#efefef"/>
        <path id="Path_566" data-name="Path 566" d="M332.646,40.4h1.246v6.553a3.344,3.344,0,0,1-.485,1.843,3.016,3.016,0,0,1-1.385,1.229,4.889,4.889,0,0,1-2.077.478,4.23,4.23,0,0,1-2.077-.478,4.04,4.04,0,0,1-1.385-1.229A3.2,3.2,0,0,1,326,46.953V40.4h1.246v6.485a2.793,2.793,0,0,0,.346,1.3,2.235,2.235,0,0,0,.9.887,3.04,3.04,0,0,0,1.454.341,3.255,3.255,0,0,0,1.454-.341,1.881,1.881,0,0,0,.9-.887,2.793,2.793,0,0,0,.346-1.3Z" transform="translate(-100.314 -12.823)" fill="#efefef"/>
        <path id="Path_567" data-name="Path 567" d="M355.061,40.4v9.9h-1.177l-5.469-7.782h-.069V50.3H347.1V40.4h1.177l5.538,7.782h.069V40.4Z" transform="translate(-106.807 -12.823)" fill="#efefef"/>
        <path id="Path_568" data-name="Path 568" d="M371.415,50.3H368.3V40.4h3.254a4.81,4.81,0,0,1,2.492.614,3.828,3.828,0,0,1,1.592,1.706,6.675,6.675,0,0,1,0,5.324,3.629,3.629,0,0,1-1.661,1.706,5.469,5.469,0,0,1-2.561.546m-1.869-1.024h1.8a3.893,3.893,0,0,0,2.077-.478,3,3,0,0,0,1.246-1.365,5.027,5.027,0,0,0,.415-2.116,4.5,4.5,0,0,0-.415-2.048,3.775,3.775,0,0,0-1.177-1.365,3.551,3.551,0,0,0-1.938-.478h-1.938v7.85Z" transform="translate(-113.331 -12.823)" fill="#efefef"/>
        <path id="Path_569" data-name="Path 569" d="M98.969,16.823H92.184l-1.108,3.461H86.3L93.361.9h4.361l7.131,19.384h-4.777Zm-1.246-3.808L95.577,6.508h-.069l-2.146,6.508Z" transform="translate(-26.556 -0.277)" fill="#efefef"/>
      </g>
    </g>
  </g>
</svg>
