<svg xmlns="http://www.w3.org/2000/svg" width="23" height="23" viewBox="0 0 23 23">
  <path id="Path_274" data-name="Path 274" d="M19.641,5.979h0a1.38,1.38,0,1,0,1.38,1.38A1.38,1.38,0,0,0,19.641,5.979Zm5.29,2.783A8.729,8.729,0,0,0,24.4,5.968a5.681,5.681,0,0,0-1.334-2.035,5.405,5.405,0,0,0-2.036-1.323,8.4,8.4,0,0,0-2.795-.54C17.019,2,16.628,2,13.5,2s-3.519,0-4.738.069a8.4,8.4,0,0,0-2.795.54A5.5,5.5,0,0,0,3.932,3.932,5.4,5.4,0,0,0,2.61,5.967a8.4,8.4,0,0,0-.541,2.794C2,9.981,2,10.372,2,13.5s0,3.519.069,4.738a8.4,8.4,0,0,0,.541,2.795,5.405,5.405,0,0,0,1.323,2.036,5.5,5.5,0,0,0,2.035,1.323,8.4,8.4,0,0,0,2.795.54C9.981,25,10.372,25,13.5,25s3.519,0,4.738-.069a8.4,8.4,0,0,0,2.795-.54,5.4,5.4,0,0,0,2.035-1.322A5.577,5.577,0,0,0,24.4,21.033a8.729,8.729,0,0,0,.529-2.795c0-1.219.069-1.61.069-4.738S25,9.981,24.931,8.762ZM22.861,18.1a6.452,6.452,0,0,1-.391,2.139,3.519,3.519,0,0,1-.862,1.323,3.668,3.668,0,0,1-1.323.863,6.451,6.451,0,0,1-2.139.391c-1.15.058-1.576.069-4.6.069s-3.45,0-4.6-.069a6.589,6.589,0,0,1-2.231-.345,3.76,3.76,0,0,1-1.265-.862A3.45,3.45,0,0,1,4.6,20.285a6.371,6.371,0,0,1-.46-2.185c0-1.15-.069-1.576-.069-4.6s0-3.45.069-4.6a6.371,6.371,0,0,1,.4-2.185A3.45,3.45,0,0,1,5.45,5.45a3.611,3.611,0,0,1,1.265-.92A6.59,6.59,0,0,1,8.9,4.139c1.15,0,1.575-.069,4.6-.069s3.45,0,4.6.069a6.452,6.452,0,0,1,2.139.391,3.519,3.519,0,0,1,1.368.92,3.519,3.519,0,0,1,.862,1.265A6.452,6.452,0,0,1,22.861,8.9c.057,1.15.069,1.575.069,4.6S22.919,16.95,22.861,18.1ZM13.5,7.6a5.888,5.888,0,1,0,4.182,1.72A5.9,5.9,0,0,0,13.5,7.6Zm0,9.729a3.83,3.83,0,1,1,3.83-3.83,3.83,3.83,0,0,1-3.83,3.83Z" transform="translate(-2 -2)" fill="#efefef"/>
</svg>
