<svg xmlns="http://www.w3.org/2000/svg" width="20" height="20" viewBox="0 0 20 20">
  <path id="Path_454" data-name="Path 454" d="M15,5A10,10,0,1,0,25,15,10.011,10.011,0,0,0,15,5ZM6.163,15.571h3.56a17.809,17.809,0,0,0,.484,3.714H7.252a8.792,8.792,0,0,1-1.089-3.714Zm9.408-6V6.238c1.009.331,2,1.52,2.68,3.334Zm3.044,1.143a16.331,16.331,0,0,1,.519,3.714H15.571V10.714ZM14.429,6.238V9.571h-2.68C12.429,7.758,13.419,6.569,14.429,6.238Zm0,4.477v3.714H10.866a16.331,16.331,0,0,1,.519-3.714ZM9.723,14.429H6.163a8.792,8.792,0,0,1,1.089-3.714h2.955A17.827,17.827,0,0,0,9.723,14.429Zm1.143,1.143h3.562v3.714H11.385a16.331,16.331,0,0,1-.519-3.714Zm3.562,4.857v3.334c-1.009-.331-2-1.52-2.68-3.334Zm1.143,3.334V20.429h2.68C17.571,22.242,16.581,23.431,15.571,23.762Zm0-4.477V15.571h3.562a16.331,16.331,0,0,1-.519,3.714Zm4.706-3.714h3.56a8.792,8.792,0,0,1-1.089,3.714H19.793A17.827,17.827,0,0,0,20.277,15.571Zm0-1.143a17.827,17.827,0,0,0-.485-3.714h2.955a8.792,8.792,0,0,1,1.089,3.714h-3.56Zm1.714-4.857H19.462a9.554,9.554,0,0,0-1.519-2.924,8.893,8.893,0,0,1,4.048,2.924ZM12.057,6.648a9.554,9.554,0,0,0-1.519,2.924H8.009a8.893,8.893,0,0,1,4.048-2.924ZM8.009,20.429h2.529a9.554,9.554,0,0,0,1.519,2.924,8.893,8.893,0,0,1-4.048-2.924Zm9.935,2.924a9.554,9.554,0,0,0,1.519-2.924h2.529a8.893,8.893,0,0,1-4.048,2.924Z" transform="translate(-5 -5)" fill="#102970"/>
</svg>
