<svg xmlns="http://www.w3.org/2000/svg" width="23" height="23" viewBox="0 0 23 23">
  <path id="Path_276" data-name="Path 276" d="M23.359,2H3.761a1.673,1.673,0,0,0-1.7,1.644V23.355A1.673,1.673,0,0,0,3.761,25h19.6a1.673,1.673,0,0,0,1.7-1.644V3.645A1.673,1.673,0,0,0,23.359,2ZM9.036,21.251H5.566V10.9H9.036ZM7.3,9.452h0a1.794,1.794,0,1,1,0-3.588A1.82,1.82,0,0,1,9.043,6.7a1.8,1.8,0,0,1,0,1.922A1.82,1.82,0,0,1,7.3,9.452Zm14.254,11.8H18.084V15.7c0-1.391-.5-2.3-1.759-2.3a1.908,1.908,0,0,0-1.782,1.253,2.287,2.287,0,0,0-.116.839v5.75H10.957V10.889h3.471v1.46a3.476,3.476,0,0,1,3.135-1.725c2.314,0,3.991,1.483,3.991,4.669Z" transform="translate(-2.06 -2)" fill="#efefef"/>
</svg>
