<svg xmlns="http://www.w3.org/2000/svg" width="26" height="30" viewBox="0 0 26 30">
  <g id="Group_66" data-name="Group 66" transform="translate(-1.012 0.002)">
    <path id="Path_26" data-name="Path 26" d="M3.995,8.2a7.556,7.556,0,0,1,7.4-7.7,7.556,7.556,0,0,1,7.4,7.7" transform="translate(2.608 0.436)" fill="#6da8f5"/>
    <path id="Path_27" data-name="Path 27" d="M4.01,4.5c0,5.616,4.809,10,7.214,15,2.53-4.994,7.584-9.38,7.584-15" transform="translate(2.622 3.941)" fill="#6da8f5" fill-rule="evenodd"/>
    <path id="Path_28" data-name="Path 28" d="M11.83,1036.36a8.4,8.4,0,0,0-8.336,8.435.926.926,0,1,0,1.852,0,6.484,6.484,0,1,1,12.967,0,.926.926,0,1,0,1.852,0A8.4,8.4,0,0,0,11.83,1036.36Z" transform="translate(2.17 -1036.362)" fill="#102970"/>
    <path id="Path_29" data-name="Path 29" d="M4.425,1040.36a.932.932,0,0,0-.915.947c0,3.08,1.312,5.755,2.851,8.235s3.323,4.8,4.468,7.176a.921.921,0,0,0,1.656.019,85.233,85.233,0,0,1,4.7-7.176c1.617-2.478,3-5.155,3-8.248a.926.926,0,1,0-1.852,0c0,2.523-1.147,4.848-2.692,7.215-1.274,1.949-2.716,3.966-3.959,6.059-1.18-2.085-2.54-4.1-3.749-6.04-1.469-2.367-2.567-4.7-2.567-7.236a.943.943,0,0,0-.271-.674.921.921,0,0,0-.666-.275Z" transform="translate(2.184 -1032.864)" fill="#102970" fill-rule="evenodd"/>
    <path id="Path_30" data-name="Path 30" d="M10.744,5.375A1.875,1.875,0,1,1,8.87,3.5,1.875,1.875,0,0,1,10.744,5.375Z" transform="translate(5.133 3.063)" fill="#fff"/>
    <path id="Path_31" data-name="Path 31" d="M14,1039.36a2.812,2.812,0,1,0,2.79,2.812A2.817,2.817,0,0,0,14,1039.36Zm0,1.875a.944.944,0,1,1-.93.937A.92.92,0,0,1,14,1041.234Zm7.609,9.8a.938.938,0,0,0-.335,1.813,7.078,7.078,0,0,1,3.561,2.662,2.241,2.241,0,0,1-.169,2.671c-1.349,1.942-5.648,3.663-10.555,3.683s-9.268-1.655-10.693-3.6a2.262,2.262,0,0,1-.27-2.675A6.81,6.81,0,0,1,6.6,1052.9a.94.94,0,0,0,.5-1.227.928.928,0,0,0-1.218-.5,8.428,8.428,0,0,0-4.375,3.53,4.361,4.361,0,0,0,.415,4.667c2.106,2.877,6.9,4.386,12.2,4.364s10.049-1.569,12.07-4.48a4.345,4.345,0,0,0,.26-4.675,8.688,8.688,0,0,0-4.48-3.475.922.922,0,0,0-.363-.073Z" transform="translate(0 -1033.738)" fill="#102970"/>
  </g>
</svg>
