
<svg xmlns="http://www.w3.org/2000/svg" xmlns:xlink="http://www.w3.org/1999/xlink" width="263" height="40" viewBox="0 0 263 40">
  <defs>
    <clipPath id="clip-path">
      <rect id="Rectangle_1325" data-name="Rectangle 1325" width="263" height="40" fill="none"/>
    </clipPath>
  </defs>
  <g id="Group_392" data-name="Group 392" transform="translate(0 0)">
    <path id="Path_505" data-name="Path 505" d="M99,16.965H92.2L91.09,20.436H86.3L93.38,1h4.373l7.15,19.436h-4.79Zm-1.249-3.887L95.6,6.553h-.069L93.38,13.078Z" transform="translate(-26.585 -0.306)" fill="#f0efef"/>
    <g id="Group_393" data-name="Group 393" transform="translate(0 0)">
      <g id="Group_392-2" data-name="Group 392" clip-path="url(#clip-path)">
        <path id="Path_506" data-name="Path 506" d="M115.761,19.71a4.631,4.631,0,0,1-1.038-3.26V10.881H113.2v-3.4h1.523V3.275l4.291-.475V7.418h3.253v3.4h-3.253v4.754a2.343,2.343,0,0,0,.208,1.087.8.8,0,0,0,.761.407,3.151,3.151,0,0,0,1.315-.34l1.038,3.056a8.558,8.558,0,0,1-1.661.679,8.9,8.9,0,0,1-2.076.2,3.193,3.193,0,0,1-2.838-.951" transform="translate(-34.854 -0.898)" fill="#f0efef"/>
        <rect id="Rectangle_1323" data-name="Rectangle 1323" width="4.222" height="19.694" transform="translate(89.558)" fill="#f0efef"/>
        <path id="Path_507" data-name="Path 507" d="M152.919,9.6V22.711H148.9V21.285h-.069a4.36,4.36,0,0,1-3.668,1.63,6.591,6.591,0,0,1-2.561-.475,6.918,6.918,0,0,1-2.007-1.358,6.808,6.808,0,0,1-1.315-2.173,8.7,8.7,0,0,1-.484-2.784,7.028,7.028,0,0,1,.484-2.716,7.481,7.481,0,0,1,1.246-2.173,4.774,4.774,0,0,1,1.938-1.358,6.978,6.978,0,0,1,2.422-.475,4.638,4.638,0,0,1,3.668,1.63h.069V9.672Zm-4.914,8.761a3,3,0,0,0,.831-2.241,4.038,4.038,0,0,0-.346-1.63,2.643,2.643,0,0,0-1.038-1.087A2.6,2.6,0,0,0,146,13a2.655,2.655,0,0,0-2.076.883,3,3,0,0,0-.831,2.241,3.217,3.217,0,0,0,.831,2.241,2.9,2.9,0,0,0,2.076.883,2.612,2.612,0,0,0,2.007-.883" transform="translate(-42.736 -3.016)" fill="#f0efef"/>
        <path id="Path_508" data-name="Path 508" d="M173.343,9.572a4.933,4.933,0,0,1,1.523.883,5.112,5.112,0,0,1,1.038,1.7,9.343,9.343,0,0,1,.346,2.581v7.878h-4.291V15.82a3.973,3.973,0,0,0-.277-1.7,1.828,1.828,0,0,0-.692-.883,2.718,2.718,0,0,0-1.177-.272,2.424,2.424,0,0,0-1.246.34,2.107,2.107,0,0,0-.831,1.019,4.126,4.126,0,0,0-.346,1.7v6.587H163.1V9.572h4.291v1.562a5.7,5.7,0,0,1,1.8-1.358,5,5,0,0,1,2.215-.475,7.806,7.806,0,0,1,1.938.272" transform="translate(-50.218 -2.984)" fill="#f0efef"/>
        <path id="Path_509" data-name="Path 509" d="M186.861,19.71a4.631,4.631,0,0,1-1.038-3.26V10.881H184.3v-3.4h1.523V3.275l4.291-.475V7.418h3.253v3.4h-3.253v4.754a2.343,2.343,0,0,0,.208,1.087.8.8,0,0,0,.761.407,3.151,3.151,0,0,0,1.315-.34l1.038,3.056a8.557,8.557,0,0,1-1.661.679,8.9,8.9,0,0,1-2.076.2,3.26,3.26,0,0,1-2.838-.951" transform="translate(-56.745 -0.898)" fill="#f0efef"/>
        <path id="Path_510" data-name="Path 510" d="M200.361,4.378a2.333,2.333,0,0,1-.761-1.766,2.768,2.768,0,0,1,.346-1.29,2.426,2.426,0,0,1,.969-.883A2.906,2.906,0,0,1,202.23.1,2.533,2.533,0,0,1,204.1.779a2.333,2.333,0,0,1,.761,1.766,2.333,2.333,0,0,1-.761,1.766,2.642,2.642,0,0,1-1.869.679,2.249,2.249,0,0,1-1.869-.611m-.277,2.241h4.222V19.726h-4.222Z" transform="translate(-61.456 -0.032)" fill="#f0efef"/>
        <path id="Path_511" data-name="Path 511" d="M213.191,22.1a6.386,6.386,0,0,1-2.492-2.377,6.723,6.723,0,0,1-.9-3.531,6.723,6.723,0,0,1,.9-3.531,6.128,6.128,0,0,1,2.561-2.377,8.107,8.107,0,0,1,3.668-.883,7.766,7.766,0,0,1,3.253.679,7.168,7.168,0,0,1,2.561,1.9L219.9,14.358a3.573,3.573,0,0,0-2.768-1.29,2.9,2.9,0,0,0-2.146.815,2.942,2.942,0,0,0-.831,2.173,3.235,3.235,0,0,0,.208,1.222,2.3,2.3,0,0,0,.623.951,2.351,2.351,0,0,0,.969.611,3.41,3.41,0,0,0,1.246.2,3.537,3.537,0,0,0,2.7-1.154l2.907,2.513a6.806,6.806,0,0,1-2.492,1.766,8.382,8.382,0,0,1-3.53.679,6.847,6.847,0,0,1-3.6-.747" transform="translate(-64.596 -3.016)" fill="#f0efef"/>
        <path id="Path_512" data-name="Path 512" d="M232.6,1h6.783a7.663,7.663,0,0,1,2.907.475A4.535,4.535,0,0,1,244.3,2.7,5.036,5.036,0,0,1,245.4,4.531a6.382,6.382,0,0,1,.346,2.377,6.146,6.146,0,0,1-.484,2.581,5.4,5.4,0,0,1-1.384,1.834,7.042,7.042,0,0,1-2.146,1.087,11.414,11.414,0,0,1-2.768.34h-4.014v7.267H232.6Zm6.16,9.576a6.675,6.675,0,0,0,2.076-.272,4.237,4.237,0,0,0,1.453-.815,3.274,3.274,0,0,0,.831-1.154A3.6,3.6,0,0,0,243.4,6.84a3.314,3.314,0,0,0-1.107-2.716,4.847,4.847,0,0,0-3.114-.951h-4.153v7.47Z" transform="translate(-71.616 -0.321)" fill="#888"/>
        <path id="Path_513" data-name="Path 513" d="M268.188,9.7V22.743h-2.146V20.705a5.853,5.853,0,0,1-2.007,1.63,5.553,5.553,0,0,1-2.63.611,6.591,6.591,0,0,1-2.561-.475,5.484,5.484,0,0,1-2.076-1.358,7.465,7.465,0,0,1-1.384-2.105,6.8,6.8,0,0,1-.484-2.716,7.134,7.134,0,0,1,.831-3.463,6.2,6.2,0,0,1,2.353-2.445,6.072,6.072,0,0,1,3.322-.883,6.657,6.657,0,0,1,2.561.543,5,5,0,0,1,2.007,1.562h.069V9.7ZM263.344,20.57a4.129,4.129,0,0,0,1.453-.951,3.76,3.76,0,0,0,.969-1.494,5.4,5.4,0,0,0,0-3.8,4.566,4.566,0,0,0-.9-1.494,5.178,5.178,0,0,0-1.384-1.019,3.755,3.755,0,0,0-1.73-.34,4.118,4.118,0,0,0-3.184,1.29,4.894,4.894,0,0,0-1.315,3.463,4.629,4.629,0,0,0,1.246,3.328,4.17,4.17,0,0,0,3.253,1.29,3.432,3.432,0,0,0,1.592-.272" transform="translate(-78.482 -3.048)" fill="#888"/>
        <path id="Path_514" data-name="Path 514" d="M287.129,9.6v2.377c-.346,0-.623-.068-.9-.068a3.778,3.778,0,0,0-2.146.611,3.55,3.55,0,0,0-1.384,1.63,4.94,4.94,0,0,0-.484,2.309v6.248H280V9.736h2.215v2.241h.069A5.025,5.025,0,0,1,286.575,9.6Z" transform="translate(-86.211 -3.08)" fill="#888"/>
        <path id="Path_515" data-name="Path 515" d="M293.761,16.686v-7.2H292.1v-1.9h1.661V3.1l2.215-.2V7.586h4.36v1.9h-4.36v6.927a3.6,3.6,0,0,0,.346,1.766,1.442,1.442,0,0,0,1.246.543,4.184,4.184,0,0,0,2.215-.679l.554,1.9-.831.407a3.8,3.8,0,0,1-1.038.272,8.678,8.678,0,0,1-1.384.136c-2.146,0-3.322-1.358-3.322-4.075" transform="translate(-89.936 -0.931)" fill="#888"/>
        <path id="Path_516" data-name="Path 516" d="M318.989,10.958a5.888,5.888,0,0,1,1.246,4.075v7.742H318.02V15.644a7.623,7.623,0,0,0-.208-1.9,2.607,2.607,0,0,0-.692-1.29,2.5,2.5,0,0,0-1.038-.679,4.1,4.1,0,0,0-1.315-.2,3.825,3.825,0,0,0-3.045,1.29,4.917,4.917,0,0,0-1.107,3.4v6.52H308.4V9.736h2.215v2.241h.069a5.735,5.735,0,0,1,2.076-1.766,6.13,6.13,0,0,1,2.768-.611,4.436,4.436,0,0,1,3.461,1.358" transform="translate(-94.955 -3.08)" fill="#888"/>
        <path id="Path_517" data-name="Path 517" d="M342.458,16.934H332.284a4.419,4.419,0,0,0,1.453,2.92,4.231,4.231,0,0,0,2.976,1.087,4.519,4.519,0,0,0,2.146-.475,4.9,4.9,0,0,0,1.592-1.29l1.523,1.29a5.873,5.873,0,0,1-2.284,1.766,7.482,7.482,0,0,1-3.114.679,6.937,6.937,0,0,1-2.63-.475,5.483,5.483,0,0,1-2.076-1.358,6.61,6.61,0,0,1-1.384-2.105A7.028,7.028,0,0,1,330,16.255a7.264,7.264,0,0,1,.484-2.716,6.47,6.47,0,0,1,1.315-2.105,5.8,5.8,0,0,1,2.007-1.358A6.031,6.031,0,0,1,336.3,9.6a6.413,6.413,0,0,1,3.253.815,5.355,5.355,0,0,1,2.146,2.309,7.381,7.381,0,0,1,.761,3.328,1.9,1.9,0,0,1,0,.883m-8.651-4.414a4.215,4.215,0,0,0-1.453,2.581h8.028a4.429,4.429,0,0,0-1.315-2.581,3.714,3.714,0,0,0-2.561-.951,4.208,4.208,0,0,0-2.7.951" transform="translate(-101.605 -3.08)" fill="#888"/>
        <path id="Path_518" data-name="Path 518" d="M360.129,9.6v2.377c-.346,0-.623-.068-.9-.068a3.778,3.778,0,0,0-2.146.611,3.549,3.549,0,0,0-1.384,1.63,4.939,4.939,0,0,0-.484,2.309v6.248H353V9.736h2.215v2.241h.069A5.025,5.025,0,0,1,359.575,9.6Z" transform="translate(-108.687 -3.08)" fill="#888"/>
        <path id="Path_519" data-name="Path 519" d="M365.4,20.977l1.177-1.63a5.772,5.772,0,0,0,1.8,1.154,5.706,5.706,0,0,0,2.284.407,3.178,3.178,0,0,0,1.869-.475,1.433,1.433,0,0,0,.692-1.222.5.5,0,0,0-.069-.34c0-.136-.069-.2-.138-.34a.94.94,0,0,0-.208-.272c-.069-.068-.208-.136-.346-.272l-.415-.2a3.408,3.408,0,0,0-.484-.2,4.826,4.826,0,0,1-.554-.2,3.261,3.261,0,0,0-.623-.2c-.138-.068-.277-.068-.346-.136a11.955,11.955,0,0,1-1.246-.475,7.614,7.614,0,0,1-1.038-.543,3.261,3.261,0,0,1-.9-.747,4.31,4.31,0,0,1-.554-.951,3.887,3.887,0,0,1-.208-1.29,3.1,3.1,0,0,1,1.246-2.513A4.758,4.758,0,0,1,370.452,9.5a6.96,6.96,0,0,1,4.568,1.63l-1.177,1.7a5.336,5.336,0,0,0-3.53-1.358,2.226,2.226,0,0,0-1.384.407,1.3,1.3,0,0,0-.623,1.087,1.132,1.132,0,0,0,.208.679,1.4,1.4,0,0,0,.554.543,4.159,4.159,0,0,0,.761.407,8.148,8.148,0,0,0,1.038.407c1.453.543,2.284.883,2.561,1.019a3.838,3.838,0,0,1,1.8,1.63,3.1,3.1,0,0,1,.277,1.426,3.1,3.1,0,0,1-.277,1.426,2.935,2.935,0,0,1-.9,1.154,4.6,4.6,0,0,1-1.523.815,6.675,6.675,0,0,1-2.076.272,6.8,6.8,0,0,1-5.329-1.766" transform="translate(-112.505 -3.048)" fill="#888"/>
        <path id="Path_520" data-name="Path 520" d="M12.084,32.5A1.375,1.375,0,0,1,10.7,31.141a1.329,1.329,0,0,1,.415-.951l7.406-7.267a1.391,1.391,0,0,1,1.73-.2l4.637,2.988,8.444-8.285a1.356,1.356,0,0,1,1.938.068,1.338,1.338,0,0,1,0,1.834l-9.2,9.168a1.391,1.391,0,0,1-1.73.2L19.7,25.708l-6.644,6.52a2.285,2.285,0,0,1-.969.272" transform="translate(-3.294 -5.47)" fill="#f0efef"/>
        <path id="Path_521" data-name="Path 521" d="M31.076,40.117H8.79A8.721,8.721,0,0,1,0,31.492V9.625A8.721,8.721,0,0,1,8.79,1H31.076a8.721,8.721,0,0,1,8.79,8.625V31.492a8.721,8.721,0,0,1-8.79,8.625M8.79,3.716A5.97,5.97,0,0,0,2.768,9.625V31.492A5.97,5.97,0,0,0,8.79,37.4H31.076A5.97,5.97,0,0,0,37.1,31.492V9.625a5.97,5.97,0,0,0-6.021-5.908Z" transform="translate(0 -0.321)" fill="#f0efef"/>
        <path id="Path_522" data-name="Path 522" d="M41.821,25.249a1.375,1.375,0,0,1-1.384-1.358V19.816H36.284a1.358,1.358,0,1,1,0-2.716h5.537a1.375,1.375,0,0,1,1.384,1.358v5.433a1.375,1.375,0,0,1-1.384,1.358" transform="translate(-10.746 -5.487)" fill="#f0efef"/>
        <rect id="Rectangle_1324" data-name="Rectangle 1324" width="1.246" height="9.847" transform="translate(59.729 29.949)" fill="#f0efef"/>
        <path id="Path_523" data-name="Path 523" d="M105.759,44.1v9.847h-1.177l-5.468-7.742h-.069v7.742H97.8V44.1h1.177l5.537,7.742h.069V44.1Z" transform="translate(-30.112 -14.151)" fill="#f0efef"/>
        <path id="Path_524" data-name="Path 524" d="M119.046,44.1l2.976,8.285h.138l2.976-8.285h1.246l-3.668,9.847h-1.246L117.8,44.1h1.246" transform="translate(-36.27 -14.151)" fill="#f0efef"/>
        <path id="Path_525" data-name="Path 525" d="M138.8,53.947V44.1h6.091v1.087h-4.845v3.328h4.568V49.6h-4.568v3.328h4.914v1.087Z" transform="translate(-42.736 -14.151)" fill="#f0efef"/>
        <path id="Path_526" data-name="Path 526" d="M162.283,46.513a1.579,1.579,0,0,0-.692-1.154,2.67,2.67,0,0,0-1.523-.407,3.288,3.288,0,0,0-1.177.2,1.387,1.387,0,0,0-.761.611,1.289,1.289,0,0,0-.277.815,1.132,1.132,0,0,0,.208.679,1.6,1.6,0,0,0,.484.475,2.483,2.483,0,0,0,.623.272l.623.2,1.038.272a6.52,6.52,0,0,1,.9.272,3.752,3.752,0,0,1,.9.475,2.916,2.916,0,0,1,.761.815,2.05,2.05,0,0,1,.277,1.154,2.476,2.476,0,0,1-.415,1.426,3.121,3.121,0,0,1-1.246,1.019,4.385,4.385,0,0,1-2.007.407,5.374,5.374,0,0,1-1.869-.34,2.637,2.637,0,0,1-1.73-2.377h1.246a1.329,1.329,0,0,0,.415.951,1.767,1.767,0,0,0,.831.543,2.918,2.918,0,0,0,1.107.2,3.41,3.41,0,0,0,1.246-.2,2.109,2.109,0,0,0,.9-.611,1.6,1.6,0,0,0,.346-.951,1.07,1.07,0,0,0-.277-.815,2.066,2.066,0,0,0-.761-.475,4.052,4.052,0,0,0-.969-.34l-1.246-.34a4.814,4.814,0,0,1-1.869-.951,2,2,0,0,1-.692-1.63,2.106,2.106,0,0,1,.484-1.426,2.9,2.9,0,0,1,1.246-.951,4.9,4.9,0,0,1,1.73-.34,4.609,4.609,0,0,1,1.73.34,2.693,2.693,0,0,1,1.177.951,2.319,2.319,0,0,1,.484,1.358h-1.246Z" transform="translate(-48.155 -14.119)" fill="#f0efef"/>
        <path id="Path_527" data-name="Path 527" d="M175.1,45.187V44.1h7.544v1.087H179.46v8.829h-1.246V45.187Z" transform="translate(-53.912 -14.151)" fill="#f0efef"/>
        <path id="Path_528" data-name="Path 528" d="M194.9,44.1h1.453l3.391,8.217h.138l3.391-8.217h1.453v9.847h-1.107v-7.47h-.069l-3.114,7.538h-1.107l-3.114-7.538h-.069v7.538h-1.107V44.1Z" transform="translate(-60.009 -14.151)" fill="#f0efef"/>
        <path id="Path_529" data-name="Path 529" d="M218.9,53.947V44.1h6.091v1.087h-4.845v3.328h4.568V49.6h-4.568v3.328h4.914v1.087Z" transform="translate(-67.398 -14.151)" fill="#f0efef"/>
        <path id="Path_530" data-name="Path 530" d="M245.059,44.1v9.847h-1.177l-5.468-7.742h-.069v7.742H237.1V44.1h1.177l5.537,7.742h.069V44.1Z" transform="translate(-73.002 -14.151)" fill="#f0efef"/>
        <path id="Path_531" data-name="Path 531" d="M257.5,45.187V44.1h7.544v1.087H261.86v8.829h-1.246V45.187Z" transform="translate(-79.283 -14.151)" fill="#f0efef"/>
        <path id="Path_532" data-name="Path 532" d="M282.683,46.513a1.579,1.579,0,0,0-.692-1.154,2.67,2.67,0,0,0-1.523-.407,3.288,3.288,0,0,0-1.177.2,1.387,1.387,0,0,0-.761.611,1.289,1.289,0,0,0-.277.815,1.132,1.132,0,0,0,.208.679,1.6,1.6,0,0,0,.484.475,2.483,2.483,0,0,0,.623.272l.623.2,1.038.272a6.519,6.519,0,0,1,.9.272,3.752,3.752,0,0,1,.9.475,2.917,2.917,0,0,1,.761.815,2.05,2.05,0,0,1,.277,1.154,2.476,2.476,0,0,1-.415,1.426,3.121,3.121,0,0,1-1.246,1.019,4.385,4.385,0,0,1-2.007.407,5.374,5.374,0,0,1-1.869-.34,2.637,2.637,0,0,1-1.73-2.377h1.246a1.329,1.329,0,0,0,.415.951,1.767,1.767,0,0,0,.831.543,2.918,2.918,0,0,0,1.107.2,3.41,3.41,0,0,0,1.246-.2,2.108,2.108,0,0,0,.9-.611,1.6,1.6,0,0,0,.346-.951,1.07,1.07,0,0,0-.277-.815,2.066,2.066,0,0,0-.761-.475,4.052,4.052,0,0,0-.969-.34l-1.246-.34a4.814,4.814,0,0,1-1.869-.951,2,2,0,0,1-.692-1.63,2.106,2.106,0,0,1,.484-1.426,2.9,2.9,0,0,1,1.246-.951,4.9,4.9,0,0,1,1.73-.34,4.609,4.609,0,0,1,1.73.34,2.693,2.693,0,0,1,1.177.951,2.319,2.319,0,0,1,.484,1.358h-1.246Z" transform="translate(-85.225 -14.119)" fill="#f0efef"/>
        <path id="Path_533" data-name="Path 533" d="M308.1,53.947V44.1h6.021v1.087h-4.845v3.328h4.36V49.6h-4.36v4.414Z" transform="translate(-94.862 -14.151)" fill="#f0efef"/>
        <path id="Path_534" data-name="Path 534" d="M332.644,44.1h1.246v6.52a3.316,3.316,0,0,1-.484,1.834,3.011,3.011,0,0,1-1.384,1.222,4.907,4.907,0,0,1-2.076.475,4.245,4.245,0,0,1-2.076-.475,4.032,4.032,0,0,1-1.384-1.222A3.168,3.168,0,0,1,326,50.62V44.1h1.246v6.452a2.769,2.769,0,0,0,.346,1.29,2.23,2.23,0,0,0,.9.883,3.051,3.051,0,0,0,1.453.34,3.267,3.267,0,0,0,1.453-.34,1.876,1.876,0,0,0,.9-.883,2.768,2.768,0,0,0,.346-1.29Z" transform="translate(-100.374 -14.151)" fill="#f0efef"/>
        <path id="Path_535" data-name="Path 535" d="M355.059,44.1v9.847h-1.177l-5.468-7.742h-.069v7.742H347.1V44.1h1.177l5.537,7.742h.069V44.1Z" transform="translate(-106.87 -14.151)" fill="#f0efef"/>
        <path id="Path_536" data-name="Path 536" d="M371.414,53.947H368.3V44.1h3.253a4.827,4.827,0,0,1,2.492.611,3.816,3.816,0,0,1,1.592,1.7,6.611,6.611,0,0,1,0,5.3,3.619,3.619,0,0,1-1.661,1.7,5.49,5.49,0,0,1-2.561.543m-1.869-1.019h1.8a3.907,3.907,0,0,0,2.076-.475,2.994,2.994,0,0,0,1.246-1.358,4.981,4.981,0,0,0,.415-2.105,4.463,4.463,0,0,0-.415-2.037,3.762,3.762,0,0,0-1.177-1.358,3.563,3.563,0,0,0-1.938-.475h-1.938v7.81Z" transform="translate(-113.398 -14.151)" fill="#f0efef"/>
      </g>
    </g>
  </g>
</svg>
