<svg xmlns="http://www.w3.org/2000/svg" width="28" height="23" viewBox="0 0 28 23">
  <path id="Icon_awesome-twitter" data-name="Icon awesome-twitter" d="M25.122,9.113c.018.252.018.5.018.755,0,7.673-5.774,16.513-16.327,16.513A16.084,16.084,0,0,1,0,23.775a11.739,11.739,0,0,0,1.386.072,11.411,11.411,0,0,0,7.124-2.48,5.757,5.757,0,0,1-5.366-4.025,7.157,7.157,0,0,0,1.084.09,6,6,0,0,0,1.51-.2,5.789,5.789,0,0,1-4.6-5.7v-.072a5.73,5.73,0,0,0,2.594.737A5.856,5.856,0,0,1,1.954,4.441a16.252,16.252,0,0,0,11.833,6.073,6.624,6.624,0,0,1-.142-1.33,5.769,5.769,0,0,1,5.739-5.8,5.7,5.7,0,0,1,4.193,1.833,11.221,11.221,0,0,0,3.642-1.4A5.777,5.777,0,0,1,24.7,7.01a11.4,11.4,0,0,0,3.3-.9,12.413,12.413,0,0,1-2.878,3Z" transform="translate(0 -3.381)" fill="#efefef"/>
</svg>
