<svg xmlns="http://www.w3.org/2000/svg" width="56" height="91" viewBox="0 0 56 91">
  <path id="Path_336" data-name="Path 336" d="M13.268,4a1.785,1.785,0,0,0-1.747,1.82V16.745a1.785,1.785,0,0,0,1.747,1.82H18.51v7.353A11.441,11.441,0,0,0,8.032,37.492v4.39a1.894,1.894,0,0,0,0,.684V78.28a1.894,1.894,0,0,0,0,.684v4.39A11.437,11.437,0,0,0,19.216,95h33.6A11.436,11.436,0,0,0,64,83.35V37.492A11.436,11.436,0,0,0,53.46,25.91V18.565H58.7a1.785,1.785,0,0,0,1.748-1.82V5.818A1.785,1.785,0,0,0,58.7,4H13.268Zm1.747,3.64h41.94v7.287H15.015V7.638Zm6.99,10.927h27.96v7.28H22.005v-7.28ZM19.22,29.484h33.6a7.8,7.8,0,0,1,7.689,8.008V40.4H11.527V37.492a7.8,7.8,0,0,1,7.689-8.008ZM11.527,44.044H60.5V76.8H11.527Zm21,3.64a1.785,1.785,0,0,0-1.747,1.82v5.46H25.535a1.785,1.785,0,0,0-1.747,1.82v7.28a1.785,1.785,0,0,0,1.747,1.82h5.242v5.46a1.785,1.785,0,0,0,1.747,1.82h6.99a1.785,1.785,0,0,0,1.747-1.82v-5.46h5.242a1.785,1.785,0,0,0,1.748-1.82v-7.28a1.785,1.785,0,0,0-1.748-1.82H41.263V49.5a1.785,1.785,0,0,0-1.747-1.82Zm1.748,3.64h3.495v5.46a1.785,1.785,0,0,0,1.747,1.82h5.242v3.64H39.515a1.785,1.785,0,0,0-1.747,1.82v5.46H34.273v-5.46a1.785,1.785,0,0,0-1.748-1.82H27.283V58.6h5.242a1.785,1.785,0,0,0,1.748-1.82ZM11.527,80.442H60.5v2.912a7.792,7.792,0,0,1-7.686,8.008H19.22a7.484,7.484,0,0,1-5.455-2.328,8.125,8.125,0,0,1-2.238-5.68V80.442Z" transform="translate(-8.001 -3.998)" fill="#efefef"/>
</svg>
